<svg id="Icons" xmlns="http://www.w3.org/2000/svg" viewBox="0 0 48 48"><defs><style>.cls-1{fill:#45413c;opacity:0.15;}.cls-2{fill:#ffe500;}.cls-3{fill:#fff48c;}.cls-4{fill:none;stroke:#45413c;stroke-linecap:round;stroke-linejoin:round;}.cls-5{fill:#daedf7;}.cls-6{fill:#c0dceb;}.cls-7{fill:#656769;}.cls-8{fill:#87898c;}</style></defs><title>619-construction</title><ellipse id="_Ellipse_" data-name="&lt;Ellipse&gt;" class="cls-1" cx="24" cy="42.98" rx="21.58" ry="2.02"/><rect id="_Rectangle_" data-name="&lt;Rectangle&gt;" class="cls-2" x="2.25" y="7.93" width="43.5" height="17.53" rx="1.35" ry="1.35"/><path id="_Path_" data-name="&lt;Path&gt;" class="cls-3" d="M44.4,7.93H3.6A1.34,1.34,0,0,0,2.25,9.28v3.46A1.34,1.34,0,0,1,3.6,11.39H44.4a1.34,1.34,0,0,1,1.35,1.35V9.28A1.34,1.34,0,0,0,44.4,7.93Z"/><rect id="_Rectangle_2" data-name="&lt;Rectangle&gt;" class="cls-4" x="2.25" y="7.93" width="43.5" height="17.53" rx="1.35" ry="1.35"/><path id="_Rectangle_3" data-name="&lt;Rectangle&gt;" class="cls-5" d="M6.72,25.47h5.4a0,0,0,0,1,0,0V41.65A1.35,1.35,0,0,1,10.76,43H8.07a1.35,1.35,0,0,1-1.35-1.35V25.47A0,0,0,0,1,6.72,25.47Z"/><path id="_Rectangle_4" data-name="&lt;Rectangle&gt;" class="cls-5" d="M35.89,25.47h5.4a0,0,0,0,1,0,0V41.65A1.35,1.35,0,0,1,39.93,43h-2.7a1.35,1.35,0,0,1-1.35-1.35V25.47A0,0,0,0,1,35.89,25.47Z"/><rect id="_Path_2" data-name="&lt;Path&gt;" class="cls-6" x="6.72" y="25.47" width="5.4" height="3.26"/><rect id="_Path_3" data-name="&lt;Path&gt;" class="cls-6" x="35.89" y="25.47" width="5.4" height="3.26"/><path id="_Rectangle_5" data-name="&lt;Rectangle&gt;" class="cls-4" d="M6.72,25.47h5.4a0,0,0,0,1,0,0V41.65A1.35,1.35,0,0,1,10.76,43H8.07a1.35,1.35,0,0,1-1.35-1.35V25.47A0,0,0,0,1,6.72,25.47Z"/><path id="_Rectangle_6" data-name="&lt;Rectangle&gt;" class="cls-4" d="M35.89,25.47h5.4a0,0,0,0,1,0,0V41.65A1.35,1.35,0,0,1,39.93,43h-2.7a1.35,1.35,0,0,1-1.35-1.35V25.47A0,0,0,0,1,35.89,25.47Z"/><path id="_Path_4" data-name="&lt;Path&gt;" class="cls-7" d="M8.84,7.93,3.2,25.41a1.76,1.76,0,0,0,.4.06H9.17L14.82,7.93Z"/><polygon id="_Path_5" data-name="&lt;Path&gt;" class="cls-7" points="26.96 7.93 20.98 7.93 15.32 25.46 21.31 25.46 26.96 7.93"/><polygon id="_Path_6" data-name="&lt;Path&gt;" class="cls-7" points="39.1 7.93 33.12 7.93 27.46 25.46 33.45 25.46 39.1 7.93"/><path id="_Path_7" data-name="&lt;Path&gt;" class="cls-7" d="M45.18,8.18,39.6,25.47h4.8a1.35,1.35,0,0,0,1.35-1.35V9.28A1.34,1.34,0,0,0,45.18,8.18Z"/><polygon class="cls-8" points="13.71 11.38 14.82 7.93 8.84 7.93 7.72 11.38 13.71 11.38"/><polygon class="cls-8" points="25.85 11.38 26.96 7.93 20.98 7.93 19.86 11.38 25.85 11.38"/><polygon class="cls-8" points="37.99 11.38 39.1 7.93 33.12 7.93 32 11.38 37.99 11.38"/><path class="cls-8" d="M45.18,8.18l-1,3.2h.26a1.35,1.35,0,0,1,1.35,1.35V9.28A1.34,1.34,0,0,0,45.18,8.18Z"/><path id="_Path_8" data-name="&lt;Path&gt;" class="cls-4" d="M8.84,7.93,3.2,25.41a1.76,1.76,0,0,0,.4.06H9.17L14.82,7.93Z"/><polygon id="_Path_9" data-name="&lt;Path&gt;" class="cls-4" points="26.96 7.93 20.98 7.93 15.32 25.46 21.31 25.46 26.96 7.93"/><polygon id="_Path_10" data-name="&lt;Path&gt;" class="cls-4" points="39.1 7.93 33.12 7.93 27.46 25.46 33.45 25.46 39.1 7.93"/><path id="_Path_11" data-name="&lt;Path&gt;" class="cls-4" d="M45.18,8.18,39.6,25.47h4.8a1.35,1.35,0,0,0,1.35-1.35V9.28A1.34,1.34,0,0,0,45.18,8.18Z"/></svg>