<svg height="87" viewBox="0 0 94 87" width="94" xmlns="http://www.w3.org/2000/svg"><g fill="none" fill-rule="evenodd"><g transform=""><path d="m89.7272727 43c0-23.747825-19.1300682-43-42.7272727-43s-42.72727273 19.252175-42.72727273 43c0 6.326375 1.36834091 12.3281 3.807 17.7375h77.84054543c2.4386591-5.4094 3.807-11.411125 3.807-17.7375" fill="#e8f4fa"/><path d="m8.08026136 60.7375c6.71245454 14.8952 21.60825004 25.2625 38.92027274 25.2625 17.3109545 0 32.20675-10.3673 38.9192045-25.2625z" fill="#fff"/><g stroke="#45413c"><path d="m5.34090909 60.7375h83.31818181" stroke-linecap="round" stroke-linejoin="round"/><path d="m.53409091 60.7375h2.67045454" stroke-linecap="round" stroke-linejoin="round"/><path d="m90.7954545 60.7375h2.6704546" stroke-linecap="round" stroke-linejoin="round"/></g><path d="m62.2653864 72.886935c0 1.018025-7.1023409 1.84255-15.8646364 1.84255-8.7612273 0-15.8635682-.824525-15.8635682-1.84255 0-1.01695 7.1023409-1.841475 15.8635682-1.841475 8.7622955 0 15.8646364.824525 15.8646364 1.841475" fill="#020202" opacity=".15"/><path d="m70.8077432 29.9461675c0-2.151075-1.7325909-3.894725-3.8689546-3.894725h-39.8538636c-2.1374318 0-3.8700227 1.74365-3.8700227 3.894725v26.58475h47.5928409z" fill="#00b8f0"/><path d="m55.0144614 26.05198h-27.9286819c-2.1374318 0-3.8710909 1.74365-3.8710909 3.894725v26.58475h1.5136137z" fill="#4acfff"/><path d="m52.7800386 68.142315h-11.5374318l.7210227-5.806075h10.0953864z" fill="#daedf7"/><path d="m52.3294795 64.5136525h-10.6358863l.27025-2.176875h10.0953863z" fill="#c0dceb"/><path d="m52.7800386 68.142315h-11.5374318l.7210227-5.806075h10.0953864z" stroke="#45413c" stroke-linecap="round" stroke-linejoin="round"/><path d="m55.2721068 71.04503h-16.5215682c-.6409091 0-1.1077045-.674025-.8299772-1.2556.4646591-.975025 1.4548636-1.6469 2.6010227-1.6469h12.9794773c1.1461591 0 2.1363636.671875 2.6010227 1.6469.2777273.581575-.188 1.2556-.8299773 1.2556" fill="#e8f4fa"/><path d="m55.2721068 71.04503h-16.5215682c-.6409091 0-1.1077045-.674025-.8299772-1.2556.4646591-.975025 1.4548636-1.6469 2.6010227-1.6469h12.9794773c1.1461591 0 2.1363636.671875 2.6010227 1.6469.2777273.581575-.188 1.2556-.8299773 1.2556z" stroke="#45413c" stroke-linecap="round" stroke-linejoin="round"/><path d="m66.9376136 62.3363475c2.1374319 0 3.8700228-1.74365 3.8700228-3.89365v-1.91135h-47.5928409v1.91135c0 2.15 1.7325909 3.89365 3.8700227 3.89365z" fill="#e8f4fa"/><path d="m66.9376136 62.3363475c2.1374319 0 3.8700228-1.74365 3.8700228-3.89365v-1.91135h-47.5928409v1.91135c0 2.15 1.7325909 3.89365 3.8700227 3.89365z" stroke="#45413c" stroke-linecap="round" stroke-linejoin="round"/><path d="m70.8077432 29.9461675c0-2.151075-1.7325909-3.894725-3.8689546-3.894725h-39.8538636c-2.1374318 0-3.8700227 1.74365-3.8700227 3.894725v26.58475h47.5928409z" stroke="#45413c" stroke-linecap="round" stroke-linejoin="round"/><path d="m47.6561841 59.4336325c0 .357975-.2884091.6493-.6451818.6493-.3557046 0-.6441137-.291325-.6441137-.6493s.2884091-.6493.6441137-.6493c.3567727 0 .6451818.291325.6451818.6493z" stroke="#45413c" stroke-linecap="round" stroke-linejoin="round"/><path d="m61.3160932 46.1720025c0 1.432975-1.1547046 2.596125-2.5785909 2.596125h-23.4508637c-1.4249545 0-2.5796591-1.16315-2.5796591-2.596125 0-1.43405 1.1547046-2.596125 2.5796591-2.596125h23.4508637c1.4238863 0 2.5785909 1.162075 2.5785909 2.596125" fill="#45413c"/><path d="m61.3160932 46.1720025c0 1.432975-1.1547046 2.596125-2.5785909 2.596125h-23.4508637c-1.4249545 0-2.5796591-1.16315-2.5796591-2.596125 0-1.43405 1.1547046-2.596125 2.5796591-2.596125h23.4508637c1.4238863 0 2.5785909 1.162075 2.5785909 2.596125z" stroke="#45413c" stroke-linejoin="round"/><path d="m52.5026318 43.57577h-17.2158863c-1.4249546 0-2.5796591 1.162075-2.5796591 2.596125s1.1547045 2.596125 2.5796591 2.596125h17.2158863z" stroke="#45413c" stroke-linejoin="round"/><path d="m52.5026318 43.57577h-17.2158863c-1.4249546 0-2.5796591 1.162075-2.5796591 2.596125s1.1547045 2.596125 2.5796591 2.596125h17.2158863z" stroke="#45413c" stroke-linejoin="round"/><path d="m38.6913614 8.705995c-.4924319 0-.9410682.28165-1.1579091.725625s-.1634318.97395.1367272 1.36525l8.3200682 10.85535c.2446137.3182.6216818.50525 1.0211818.50525s.7776364-.18705 1.0211819-.50525l8.3211363-10.85535c.3001591-.3913.3525-.921275.1356591-1.36525s-.6654773-.725625-1.1568409-.725625h-3.1618182v-6.018925c0-1.43405-1.1547045-2.596125-2.5796591-2.596125h-5.1593181c-1.4249546 0-2.5796591 1.162075-2.5796591 2.596125v6.018925z" fill="#6dd627"/><path d="m44.4317705 3.7415375h5.1593181c1.4249546 0 2.5796591 1.162075 2.5796591 2.596125v-3.6507c0-1.43405-1.1547045-2.596125-2.5796591-2.596125h-5.1593181c-1.4249546 0-2.5796591 1.162075-2.5796591 2.596125v3.6507c0-1.43405 1.1547045-2.596125 2.5796591-2.596125" fill="#9ceb60"/><path d="m38.6913614 8.705995c-.4924319 0-.9410682.28165-1.1579091.725625s-.1634318.97395.1367272 1.36525l8.3200682 10.85535c.2446137.3182.6216818.50525 1.0211818.50525s.7776364-.18705 1.0211819-.50525l8.3211363-10.85535c.3001591-.3913.3525-.921275.1356591-1.36525s-.6654773-.725625-1.1568409-.725625h-3.1618182v-6.018925c0-1.43405-1.1547045-2.596125-2.5796591-2.596125h-5.1593181c-1.4249546 0-2.5796591 1.162075-2.5796591 2.596125v6.018925z" stroke="#45413c" stroke-linejoin="round"/></g><g fill="#fff" fill-rule="nonzero"><rect height="2" rx="1" width="2" x="36" y="45"/><rect height="2" rx="1" width="2" x="39" y="45"/><rect height="2" rx="1" width="2" x="42" y="45"/><rect height="2" rx="1" width="2" x="45" y="45"/><rect height="2" rx="1" width="2" x="48" y="45"/><rect height="2" rx="1" width="2" x="51" y="45"/><rect height="2" rx="1" width="2" x="54" y="45"/><rect height="2" rx="1" width="2" x="57" y="45"/></g></g></svg>